<?xml version="1.0" encoding="UTF-8" standalone="no"?>
<svg
   width="100pt"
   height="100pt"
   version="1.1"
   viewBox="0 0 100 100"
   id="svg193"
   sodipodi:docname="noun-birthday-cake-692475.svg"
   inkscape:version="1.1 (c68e22c387, 2021-05-23)"
   xmlns:inkscape="http://www.inkscape.org/namespaces/inkscape"
   xmlns:sodipodi="http://sodipodi.sourceforge.net/DTD/sodipodi-0.dtd"
   xmlns="http://www.w3.org/2000/svg"
   xmlns:svg="http://www.w3.org/2000/svg">
  <sodipodi:namedview
     id="namedview195"
     pagecolor="#ffffff"
     bordercolor="#666666"
     borderopacity="1.0"
     inkscape:pageshadow="2"
     inkscape:pageopacity="0.0"
     inkscape:pagecheckerboard="0"
     inkscape:document-units="pt"
     showgrid="false"
     inkscape:zoom="3.2271429"
     inkscape:cx="84.749889"
     inkscape:cy="78.087649"
     inkscape:window-width="1920"
     inkscape:window-height="1172"
     inkscape:window-x="-8"
     inkscape:window-y="-8"
     inkscape:window-maximized="1"
     inkscape:current-layer="svg193" />
  <defs
     id="defs65">
    <symbol
       id="u"
       overflow="visible">
      <path
         d="m 18.766,-1.125 c -0.96875,0.5 -1.9805,0.875 -3.0312,1.125 -1.043,0.25781 -2.1367,0.39062 -3.2812,0.39062 -3.3984,0 -6.0898,-0.94531 -8.0781,-2.8438 -1.9922,-1.9062 -2.9844,-4.4844 -2.9844,-7.7344 0,-3.2578 0.99219,-5.8359 2.9844,-7.7344 1.9883,-1.9062 4.6797,-2.8594 8.0781,-2.8594 1.1445,0 2.2383,0.13281 3.2812,0.39062 1.0508,0.25 2.0625,0.625 3.0312,1.125 v 4.2188 c -0.98047,-0.65625 -1.9453,-1.1406 -2.8906,-1.4531 -0.94922,-0.3125 -1.9492,-0.46875 -3,-0.46875 -1.875,0 -3.3516,0.60547 -4.4219,1.8125 -1.0742,1.1992 -1.6094,2.8555 -1.6094,4.9688 0,2.1055 0.53516,3.7617 1.6094,4.9688 1.0703,1.1992 2.5469,1.7969 4.4219,1.7969 1.0508,0 2.0508,-0.14844 3,-0.45312 0.94531,-0.3125 1.9102,-0.80078 2.8906,-1.4688 z"
         id="path2" />
    </symbol>
    <symbol
       id="b"
       overflow="visible">
      <path
         d="m 13.734,-11.141 c -0.4375,-0.19531 -0.87109,-0.34375 -1.2969,-0.4375 -0.41797,-0.10156 -0.83984,-0.15625 -1.2656,-0.15625 -1.2617,0 -2.2305,0.40625 -2.9062,1.2188 -0.67969,0.80469 -1.0156,1.9531 -1.0156,3.4531 v 7.0625 H 2.3591 v -15.312 h 4.8906 v 2.5156 c 0.625,-1 1.3438,-1.7266 2.1562,-2.1875 0.82031,-0.46875 1.8008,-0.70312 2.9375,-0.70312 0.16406,0 0.34375,0.01172 0.53125,0.03125 0.19531,0.01172 0.47656,0.03906 0.84375,0.07813 z"
         id="path5" />
    </symbol>
    <symbol
       id="a"
       overflow="visible">
      <path
         d="m 17.641,-7.7031 v 1.4062 H 6.188 c 0.125,1.1484 0.53906,2.0078 1.25,2.5781 0.70703,0.57422 1.7031,0.85938 2.9844,0.85938 1.0312,0 2.082,-0.14844 3.1562,-0.45312 1.082,-0.3125 2.1914,-0.77344 3.3281,-1.3906 v 3.7656 c -1.1562,0.4375 -2.3125,0.76562 -3.4688,0.98438 -1.1562,0.22656 -2.3125,0.34375 -3.4688,0.34375 -2.7734,0 -4.9297,-0.70312 -6.4688,-2.1094 -1.5312,-1.4062 -2.2969,-3.3789 -2.2969,-5.9219 0,-2.5 0.75391,-4.4609 2.2656,-5.8906 1.5078,-1.4375 3.582,-2.1562 6.2188,-2.1562 2.4062,0 4.332,0.73047 5.7812,2.1875 1.4453,1.4492 2.1719,3.3828 2.1719,5.7969 z m -5.0312,-1.625 c 0,-0.92578 -0.27344,-1.6719 -0.8125,-2.2344 -0.54297,-0.57031 -1.25,-0.85938 -2.125,-0.85938 -0.94922,0 -1.7188,0.26562 -2.3125,0.79688 -0.5937,0.53126 -0.96484,1.2969 -1.1094,2.2969 z"
         id="path8" />
    </symbol>
    <symbol
       id="f"
       overflow="visible">
      <path
         d="m 9.2188,-6.8906 c -1.0234,0 -1.793,0.17188 -2.3125,0.51562 -0.51172,0.34375 -0.76562,0.85547 -0.76562,1.5312 0,0.625 0.20703,1.1172 0.625,1.4688 0.41406,0.34375 0.98828,0.51562 1.7188,0.51562 0.92578,0 1.7031,-0.32812 2.3281,-0.98438 0.63281,-0.66406 0.95312,-1.4922 0.95312,-2.4844 v -0.5625 z m 7.4688,-1.8438 V 0 h -4.9219 v -2.2656 c -0.65625,0.92969 -1.3984,1.6055 -2.2188,2.0312 -0.82422,0.41406 -1.8242,0.625 -3,0.625 -1.5859,0 -2.8711,-0.45703 -3.8594,-1.375 -0.99219,-0.92578 -1.4844,-2.1289 -1.4844,-3.6094 0,-1.7891 0.61328,-3.1016 1.8438,-3.9375 1.2383,-0.84375 3.1797,-1.2656 5.8281,-1.2656 h 2.8906 v -0.39062 c 0,-0.76953 -0.30859,-1.332 -0.92188,-1.6875 -0.61719,-0.36328 -1.5703,-0.54688 -2.8594,-0.54688 -1.0547,0 -2.0312,0.10547 -2.9375,0.3125 -0.89844,0.21094 -1.7305,0.52344 -2.5,0.9375 v -3.7344 c 1.0391,-0.25 2.0859,-0.44141 3.1406,-0.57812 1.0625,-0.13281 2.125,-0.20312 3.1875,-0.20312 2.7578,0 4.75,0.54688 5.9688,1.6406 1.2266,1.0859 1.8438,2.8555 1.8438,5.3125 z"
         id="path11" />
    </symbol>
    <symbol
       id="c"
       overflow="visible">
      <path
         d="m 7.7031,-19.656 v 4.3438 H 12.75 v 3.5 H 7.7031 v 6.5 c 0,0.71094 0.14062,1.1875 0.42188,1.4375 0.28126,0.25 0.83594,0.375 1.6719,0.375 h 2.5156 v 3.5 h -4.1875 c -1.9375,0 -3.3125,-0.39844 -4.125,-1.2031 -0.80469,-0.8125 -1.2031,-2.1797 -1.2031,-4.1094 v -6.5 h -2.4219 v -3.5 h 2.4219 v -4.3438 z"
         id="path14" />
    </symbol>
    <symbol
       id="j"
       overflow="visible">
      <path
         d="m 12.766,-13.078 v -8.2031 h 4.9219 V -1e-4 H 12.766 v -2.2188 c -0.66797,0.90625 -1.4062,1.5703 -2.2188,1.9844 -0.8126,0.4141 -1.7578,0.625 -2.8281,0.625 -1.8867,0 -3.4336,-0.75 -4.6406,-2.25 -1.2109,-1.5 -1.8125,-3.4258 -1.8125,-5.7812 0,-2.3633 0.60156,-4.2969 1.8125,-5.7969 1.207,-1.5 2.7539,-2.25 4.6406,-2.25 1.0625,0 2,0.21484 2.8125,0.64062 0.82031,0.42969 1.5664,1.0859 2.2344,1.9688 z m -3.2188,9.9219 c 1.0391,0 1.8359,-0.37891 2.3906,-1.1406 0.55078,-0.76953 0.82812,-1.8828 0.82812,-3.3438 0,-1.457 -0.27734,-2.5664 -0.82812,-3.3281 -0.55469,-0.76953 -1.3516,-1.1562 -2.3906,-1.1562 -1.043,0 -1.8398,0.38672 -2.3906,1.1562 -0.55469,0.76172 -0.82812,1.8711 -0.82812,3.3281 0,1.4609 0.27344,2.5742 0.82812,3.3438 0.55078,0.76172 1.3477,1.1406 2.3906,1.1406 z"
         id="path17" />
    </symbol>
    <symbol
       id="i"
       overflow="visible">
      <path
         d="m 10.5,-3.1562 c 1.0508,0 1.8516,-0.37891 2.4062,-1.1406 0.55078,-0.76953 0.82812,-1.8828 0.82812,-3.3438 0,-1.457 -0.27734,-2.5664 -0.82812,-3.3281 -0.55469,-0.76953 -1.3555,-1.1562 -2.4062,-1.1562 -1.0547,0 -1.8594,0.38672 -2.4219,1.1562 -0.55469,0.77344 -0.82812,1.8828 -0.82812,3.3281 0,1.4492 0.27344,2.5586 0.82812,3.3281 0.5625,0.77344 1.3672,1.1562 2.4219,1.1562 z m -3.25,-9.9219 c 0.67578,-0.88281 1.4219,-1.5391 2.2344,-1.9688 0.82031,-0.42578 1.7656,-0.64062 2.8281,-0.64062 1.8945,0 3.4453,0.75 4.6562,2.25 1.207,1.5 1.8125,3.4336 1.8125,5.7969 0,2.3555 -0.60547,4.2812 -1.8125,5.7812 -1.2109,1.5 -2.7617,2.25 -4.6562,2.25 -1.0625,0 -2.0078,-0.21094 -2.8281,-0.625 C 8.6719,-0.6602 7.9258,-1.32032 7.25,-2.21882 V -2e-5 H 2.3594 v -21.281 H 7.25 Z"
         id="path20" />
    </symbol>
    <symbol
       id="e"
       overflow="visible">
      <path
         d="m 0.34375,-15.312 h 4.8906 l 4.125,10.391 3.5,-10.391 h 4.8906 l -6.4375,16.766 c -0.64844,1.6953 -1.4023,2.8828 -2.2656,3.5625 -0.86719,0.6875 -2,1.0312 -3.4062,1.0312 H 2.79685 V 2.8289 h 1.5312 c 0.83203,0 1.4375,-0.13672 1.8125,-0.40625 C 6.52336,2.16093 6.82024,1.69218 7.03117,1.01645 L 7.17179,0.59457 Z"
         id="path23" />
    </symbol>
    <symbol
       id="h"
       overflow="visible">
      <path
         d="m 0.14062,-20.406 h 5.2812 l 5.4219,15.062 5.4062,-15.062 h 5.2812 L 13.96862,0 h -6.2656 z"
         id="path26" />
    </symbol>
    <symbol
       id="g"
       overflow="visible">
      <path
         d="m 14.719,-14.828 v 3.9844 c -0.65625,-0.45703 -1.3242,-0.79688 -2,-1.0156 -0.66797,-0.21875 -1.3594,-0.32812 -2.0781,-0.32812 -1.3672,0 -2.4336,0.40234 -3.2031,1.2031 -0.76172,0.79297 -1.1406,1.9062 -1.1406,3.3438 0,1.4297 0.37891,2.543 1.1406,3.3438 0.76953,0.79297 1.8359,1.1875 3.2031,1.1875 0.75781,0 1.4844,-0.10938 2.1719,-0.32812 0.6875,-0.22656 1.3203,-0.56641 1.9062,-1.0156 v 4 c -0.76172,0.28125 -1.5391,0.48828 -2.3281,0.625 -0.78125,0.14453 -1.5742,0.21875 -2.375,0.21875 -2.7617,0 -4.9219,-0.70703 -6.4844,-2.125 -1.5547,-1.4141 -2.3281,-3.3828 -2.3281,-5.9062 0,-2.5312 0.77344,-4.5039 2.3281,-5.9219 1.5625,-1.4141 3.7227,-2.125 6.4844,-2.125 0.80078,0 1.5938,0.07422 2.375,0.21875 0.78125,0.13672 1.5547,0.35156 2.3281,0.64062 z"
         id="path29" />
    </symbol>
    <symbol
       id="d"
       overflow="visible">
      <path
         d="m 9.6406,-12.188 c -1.0859,0 -1.9141,0.39062 -2.4844,1.1719 -0.57422,0.78125 -0.85938,1.9062 -0.85938,3.375 0,1.4688 0.28516,2.5938 0.85938,3.375 0.57031,0.77344 1.3984,1.1562 2.4844,1.1562 1.0625,0 1.875,-0.38281 2.4375,-1.1562 0.57031,-0.78125 0.85938,-1.9062 0.85938,-3.375 0,-1.4688 -0.28906,-2.5938 -0.85938,-3.375 -0.5625,-0.78125 -1.375,-1.1719 -2.4375,-1.1719 z m 0,-3.5 c 2.6328,0 4.6914,0.71484 6.1719,2.1406 1.4766,1.418 2.2188,3.3867 2.2188,5.9062 0,2.5117 -0.74219,4.4805 -2.2188,5.9062 C 14.332,-0.317 12.2734,0.39 9.6406,0.39 6.9922,0.39 4.9258,-0.31703 3.4375,-1.735 1.9453,-3.1608 1.2031,-5.1295 1.2031,-7.6412 c 0,-2.5195 0.74219,-4.4883 2.2344,-5.9062 1.4883,-1.4258 3.5547,-2.1406 6.2031,-2.1406 z"
         id="path32" />
    </symbol>
    <symbol
       id="t"
       overflow="visible">
      <path
         d="m 10.75,-12.516 c 0.82031,0 1.4453,-0.17969 1.875,-0.54688 0.4375,-0.36328 0.65625,-0.89844 0.65625,-1.6094 0,-0.69531 -0.21875,-1.2266 -0.65625,-1.5938 -0.42969,-0.375 -1.0547,-0.5625 -1.875,-0.5625 H 7.8281 v 4.3125 z m 0.17188,8.9375 c 1.0625,0 1.8594,-0.22266 2.3906,-0.67188 0.53125,-0.44531 0.79688,-1.125 0.79688,-2.0312 0,-0.88281 -0.26562,-1.5469 -0.79688,-1.9844 -0.52344,-0.4375 -1.3203,-0.65625 -2.3906,-0.65625 h -3.0938 v 5.3438 z m 4.8906,-7.3438 c 1.1328,0.32422 2.0078,0.92969 2.625,1.8125 0.625,0.88672 0.9375,1.9688 0.9375,3.25 0,1.9688 -0.66797,3.4375 -2,4.4062 -1.3359,0.96875 -3.3555,1.4531 -6.0625,1.4531 h -8.7344 v -20.406 h 7.8906 c 2.832,0 4.8828,0.42969 6.1562,1.2812 1.2812,0.85547 1.9219,2.2266 1.9219,4.1094 0,1 -0.23438,1.8516 -0.70312,2.5469 -0.46875,0.6875 -1.1484,1.2031 -2.0312,1.5469 z"
         id="path35" />
    </symbol>
    <symbol
       id="s"
       overflow="visible">
      <path
         d="M 2.3594,-21.281 H 7.25 v 11.594 l 5.625,-5.625 h 5.6875 L 11.0937,-8.2808 19.1562,4e-4 H 13.2187 L 7.2499,-6.3902 V 4e-4 H 2.3593 Z"
         id="path38" />
    </symbol>
    <symbol
       id="r"
       overflow="visible">
      <path
         d="m 12.422,-21.281 v 3.2188 H 9.7189 c -0.6875,0 -1.1719,0.125 -1.4531,0.375 -0.27344,0.25 -0.40625,0.6875 -0.40625,1.3125 v 1.0625 h 4.1875 v 3.5 H 7.85955 V -2e-4 h -4.8906 v -11.812 h -2.4375 v -3.5 h 2.4375 v -1.0625 c 0,-1.6641 0.46094,-2.8984 1.3906,-3.7031 0.92578,-0.80078 2.3672,-1.2031 4.3281,-1.2031 z"
         id="path41" />
    </symbol>
    <symbol
       id="q"
       overflow="visible">
      <path
         d="m 16.547,-12.766 c 0.61328,-0.94531 1.3477,-1.6719 2.2031,-2.1719 0.85156,-0.5 1.7891,-0.75 2.8125,-0.75 1.7578,0 3.0977,0.54688 4.0156,1.6406 0.92578,1.0859 1.3906,2.6562 1.3906,4.7188 V -4e-4 h -4.9219 v -7.9844 -0.35938 c 0.0078,-0.13281 0.01563,-0.32031 0.01563,-0.5625 0,-1.082 -0.16406,-1.8633 -0.48438,-2.3438 -0.3125,-0.48828 -0.82422,-0.73438 -1.5312,-0.73438 -0.92969,0 -1.6484,0.38672 -2.1562,1.1562 -0.51172,0.76172 -0.77344,1.8672 -0.78125,3.3125 v 7.5156 h -4.9219 v -7.9844 c 0,-1.6953 -0.14844,-2.7852 -0.4375,-3.2656 -0.29297,-0.48828 -0.8125,-0.73438 -1.5625,-0.73438 -0.9375,0 -1.6641,0.38672 -2.1719,1.1562 -0.51172,0.76172 -0.76562,1.8594 -0.76562,3.2969 v 7.5312 h -4.9219 v -15.312 h 4.9219 v 2.2344 c 0.60156,-0.86328 1.2891,-1.5156 2.0625,-1.9531 0.78125,-0.4375 1.6406,-0.65625 2.5781,-0.65625 1.0625,0 2,0.25781 2.8125,0.76562 0.8125,0.51172 1.4258,1.2305 1.8438,2.1562 z"
         id="path44" />
    </symbol>
    <symbol
       id="p"
       overflow="visible">
      <path
         d="M 17.75,-9.3281 V 0 h -4.9219 v -7.1094 c 0,-1.3438 -0.03125,-2.2656 -0.09375,-2.7656 -0.0625,-0.5 -0.16797,-0.86719 -0.3125,-1.1094 -0.1875,-0.3125 -0.44922,-0.55469 -0.78125,-0.73438 -0.32422,-0.17578 -0.69531,-0.26562 -1.1094,-0.26562 -1.0234,0 -1.8242,0.39844 -2.4062,1.1875 -0.58594,0.78125 -0.875,1.8711 -0.875,3.2656 V -1e-4 H 2.3594 v -21.281 H 7.25 v 8.2031 c 0.73828,-0.88281 1.5195,-1.5391 2.3438,-1.9688 0.83203,-0.42578 1.75,-0.64062 2.75,-0.64062 1.7695,0 3.1133,0.54688 4.0312,1.6406 0.91406,1.0859 1.375,2.6562 1.375,4.7188 z"
         id="path47" />
    </symbol>
    <symbol
       id="o"
       overflow="visible">
      <path
         d="m 2.5781,-20.406 h 5.875 l 7.4219,14 v -14 h 4.9844 V 0 h -5.875 L 7.5625,-14 V 0 H 2.5781 Z"
         id="path50" />
    </symbol>
    <symbol
       id="n"
       overflow="visible">
      <path
         d="m 2.1875,-5.9688 v -9.3438 h 4.9219 v 1.5312 c 0,0.83594 -0.00781,1.875 -0.015625,3.125 -0.011719,1.25 -0.015625,2.0859 -0.015625,2.5 0,1.2422 0.03125,2.1328 0.09375,2.6719 0.070313,0.54297 0.17969,0.93359 0.32812,1.1719 0.20703,0.32422 0.47266,0.57422 0.79688,0.75 0.32031,0.16797 0.69141,0.25 1.1094,0.25 1.0195,0 1.8203,-0.39062 2.4062,-1.1719 0.58203,-0.78125 0.875,-1.8672 0.875,-3.2656 v -7.5625 h 4.8906 V -6e-4 H 12.6875 V -2.2194 C 11.94531,-1.32096 11.1641,-0.6608 10.3437,-0.235 9.51948,0.17906 8.6093,0.39 7.6093,0.39 5.8476,0.39 4.5038,-0.14906 3.5781,-1.235 2.64841,-2.317 2.1875,-3.8952 2.1875,-5.9694 Z"
         id="path53" />
    </symbol>
    <symbol
       id="m"
       overflow="visible">
      <path
         d="M 17.75,-9.3281 V 0 h -4.9219 v -7.1406 c 0,-1.3203 -0.03125,-2.2344 -0.09375,-2.7344 -0.0625,-0.5 -0.16797,-0.86719 -0.3125,-1.1094 -0.1875,-0.3125 -0.44922,-0.55469 -0.78125,-0.73438 -0.32422,-0.17578 -0.69531,-0.26562 -1.1094,-0.26562 -1.0234,0 -1.8242,0.39844 -2.4062,1.1875 -0.58594,0.78125 -0.875,1.8711 -0.875,3.2656 V -1e-4 H 2.3594 v -15.312 H 7.25 v 2.2344 c 0.73828,-0.88281 1.5195,-1.5391 2.3438,-1.9688 0.83203,-0.42578 1.75,-0.64062 2.75,-0.64062 1.7695,0 3.1133,0.54688 4.0312,1.6406 0.91406,1.0859 1.375,2.6562 1.375,4.7188 z"
         id="path56" />
    </symbol>
    <symbol
       id="l"
       overflow="visible">
      <path
         d="m 2.5781,-20.406 h 8.7344 c 2.5938,0 4.582,0.57812 5.9688,1.7344 1.3945,1.1484 2.0938,2.7891 2.0938,4.9219 0,2.1367 -0.69922,3.7812 -2.0938,4.9375 -1.3867,1.1562 -3.375,1.7344 -5.9688,1.7344 H 7.8281 V 3e-4 h -5.25 z m 5.25,3.8125 v 5.7031 H 10.75 c 1.0195,0 1.8047,-0.25 2.3594,-0.75 0.5625,-0.5 0.84375,-1.2031 0.84375,-2.1094 0,-0.91406 -0.28125,-1.6172 -0.84375,-2.1094 -0.55469,-0.48828 -1.3398,-0.73438 -2.3594,-0.73438 z"
         id="path59" />
    </symbol>
    <symbol
       id="k"
       overflow="visible">
      <path
         d="M 2.3594,-15.312 H 7.25 v 15.031 c 0,2.0508 -0.49609,3.6172 -1.4844,4.7031 -0.98047,1.082 -2.4062,1.625 -4.2812,1.625 H -0.9375 V 2.8283 h 0.85938 c 0.92578,0 1.5625,-0.21094 1.9062,-0.625 0.35156,-0.41797 0.53125,-1.2461 0.53125,-2.4844 z m 0,-5.9688 H 7.25 v 4 H 2.3594 Z"
         id="path62" />
    </symbol>
  </defs>
  <g
     id="g362"
     transform="matrix(0.19781733,0,0,0.19781733,-19.573751,-10.778021)">
    <path
       d="m 361.9,404.44 c 0.50781,0.80078 1.3711,1.2422 2.2578,1.2422 0.49219,0 0.99609,-0.14063 1.4375,-0.42188 1.2422,-0.80469 1.6133,-2.457 0.81641,-3.6953 l -1.8828,-2.957 c -0.78906,-1.25 -2.4531,-1.6055 -3.7031,-0.82422 -1.25,0.79688 -1.6172,2.4531 -0.81641,3.707 z"
       id="path67" />
    <path
       d="m 311.48,391.52 c -1.2539,0.80078 -1.625,2.457 -0.82422,3.7031 l 1.875,2.9531 c 0.50391,0.80078 1.3789,1.25 2.2578,1.25 0.49219,0 0.99219,-0.14062 1.4375,-0.42578 1.2539,-0.78516 1.625,-2.4531 0.82422,-3.6953 l -1.875,-2.9453 c -0.79688,-1.2656 -2.457,-1.625 -3.6953,-0.83984 z"
       id="path69" />
    <path
       d="m 309.29,370.08 c 0.50781,0.80469 1.3789,1.2422 2.2578,1.2422 0.49219,0 0.99609,-0.15234 1.4492,-0.42188 1.2383,-0.80078 1.6133,-2.4648 0.8125,-3.7188 l -1.8984,-2.9414 c -0.80469,-1.2656 -2.4766,-1.6172 -3.7031,-0.81641 -1.25,0.78906 -1.6133,2.4531 -0.81641,3.7031 z"
       id="path71" />
    <path
       d="m 252.36,401.32 c 0.50781,0.79688 1.3789,1.2305 2.2578,1.2305 0.49219,0 0.99609,-0.12891 1.4453,-0.42578 1.2422,-0.80078 1.6133,-2.4531 0.8125,-3.7031 l -1.8867,-2.9453 c -0.80469,-1.2656 -2.4766,-1.6172 -3.707,-0.81641 -1.2422,0.79688 -1.6133,2.4531 -0.8125,3.707 z"
       id="path73" />
    <path
       d="m 267.64,370.07 c 0.50781,0.79688 1.3789,1.25 2.2695,1.25 0.48828,0 0.98438,-0.15234 1.4297,-0.42188 1.2539,-0.78906 1.625,-2.4453 0.82422,-3.707 l -1.8711,-2.9414 c -0.79688,-1.2656 -2.457,-1.6289 -3.6953,-0.82812 -1.25,0.78516 -1.625,2.4453 -0.82812,3.6914 z"
       id="path75" />
    <path
       d="m 199.86,404 c 0.51562,0.78906 1.3828,1.2422 2.2617,1.2422 0.49219,0 0.99609,-0.13281 1.4453,-0.42969 1.2422,-0.8125 1.6016,-2.457 0.8125,-3.7109 l -1.9023,-2.9453 c -0.8125,-1.2539 -2.4648,-1.6016 -3.7031,-0.8125 -1.25,0.8125 -1.6055,2.4648 -0.80469,3.707 z"
       id="path77" />
    <path
       d="m 181.05,370.42 c 0.50781,0.79688 1.3711,1.2383 2.2578,1.2383 0.50391,0 1.0039,-0.13281 1.4375,-0.42578 1.2539,-0.79688 1.6172,-2.4531 0.81641,-3.6953 l -1.8789,-2.957 c -0.80078,-1.2539 -2.4648,-1.6055 -3.707,-0.81641 -1.2422,0.80469 -1.6133,2.4531 -0.8125,3.6914 z"
       id="path79" />
    <path
       d="m 336,419.27 c 0.51562,0.8125 1.3789,1.2383 2.2617,1.2383 0.49219,0 0.99609,-0.12891 1.4453,-0.41406 1.2422,-0.80078 1.6133,-2.4531 0.8125,-3.6953 l -1.8945,-2.9688 c -0.81641,-1.2617 -2.4805,-1.6016 -3.707,-0.80078 -1.2422,0.79688 -1.6055,2.4531 -0.8125,3.6953 z"
       id="path81" />
    <path
       d="m 228.2,422.62 c 0.51953,0.80469 1.3828,1.2539 2.2578,1.2539 0.50781,0 1.0039,-0.13281 1.4453,-0.42188 1.25,-0.79688 1.6172,-2.457 0.82422,-3.7109 l -1.8867,-2.9414 c -0.80078,-1.2656 -2.457,-1.625 -3.7031,-0.83594 -1.25,0.80078 -1.6172,2.4648 -0.82422,3.707 z"
       id="path83" />
    <path
       d="m 518.49,402.41 c 0.50781,0.80469 1.3711,1.2422 2.2617,1.2422 0.49219,0 0.98438,-0.13281 1.4375,-0.41406 1.25,-0.80078 1.6172,-2.4531 0.82422,-3.6953 l -1.875,-2.9531 c -0.80078,-1.2617 -2.457,-1.6172 -3.6953,-0.82422 -1.2539,0.79688 -1.6172,2.4453 -0.82422,3.6953 z"
       id="path85" />
    <path
       d="m 526.66,372.26 c 0.51562,0.80469 1.3711,1.2305 2.2578,1.2305 0.49219,0 0.99219,-0.12891 1.4453,-0.42188 1.2422,-0.78906 1.6172,-2.4531 0.80469,-3.7031 l -1.8945,-2.9414 c -0.80469,-1.2695 -2.4766,-1.625 -3.6953,-0.83594 -1.2539,0.80469 -1.6133,2.4648 -0.81641,3.7109 z"
       id="path87" />
    <path
       d="m 456.09,405.44 c 0.50781,0.80469 1.3711,1.2305 2.2383,1.2305 0.50781,0 1.0195,-0.12891 1.4609,-0.41406 1.2539,-0.79687 1.6055,-2.4531 0.8125,-3.707 l -1.8984,-2.9453 c -0.80078,-1.2656 -2.4648,-1.6172 -3.6953,-0.8125 -1.2422,0.80469 -1.625,2.4531 -0.80469,3.7031 z"
       id="path89" />
    <path
       d="m 439.14,373.22 c 0.50391,0.78906 1.3711,1.2305 2.2461,1.2305 0.5,0 1.0039,-0.14062 1.4492,-0.42969 1.25,-0.79688 1.6133,-2.4531 0.8125,-3.6953 l -1.8906,-2.9648 c -0.80078,-1.2656 -2.457,-1.6133 -3.6953,-0.80469 -1.25,0.78906 -1.6172,2.4453 -0.80469,3.6953 z"
       id="path91" />
    <path
       d="m 389.59,402.5 c 0.51562,0.79688 1.3789,1.2383 2.2578,1.2383 0.49219,0 0.99609,-0.14062 1.4375,-0.4375 1.2539,-0.79688 1.625,-2.4531 0.81641,-3.6914 l -1.8945,-2.957 c -0.80469,-1.2617 -2.4688,-1.6133 -3.6953,-0.8125 -1.25,0.78906 -1.6133,2.4531 -0.81641,3.7031 z"
       id="path93" />
    <path
       d="m 497.7,396 c 0.50391,0.79688 1.3789,1.2305 2.2578,1.2305 0.5,0 0.99609,-0.12891 1.4492,-0.41406 1.25,-0.79687 1.6055,-2.4414 0.81641,-3.6914 l -1.8828,-2.9531 c -0.80078,-1.2539 -2.4648,-1.6016 -3.7031,-0.82812 -1.2617,0.81641 -1.6172,2.4531 -0.81641,3.707 z"
       id="path95" />
    <path
       d="m 397.5,373.21 c 0.51562,0.80469 1.3711,1.25 2.2578,1.25 0.49219,0 0.99609,-0.14062 1.4453,-0.41406 1.2539,-0.80078 1.6133,-2.4648 0.81641,-3.7109 l -1.8828,-2.957 c -0.80078,-1.25 -2.4531,-1.5898 -3.707,-0.82422 -1.25,0.78906 -1.6133,2.457 -0.81641,3.7109 z"
       id="path97" />
    <path
       d="m 482.59,423.24 c 0.51562,0.80078 1.3828,1.2383 2.2617,1.2383 0.50391,0 1.0039,-0.12891 1.4375,-0.42187 1.2539,-0.79688 1.6172,-2.4531 0.82812,-3.6914 l -1.8867,-2.9688 c -0.8125,-1.25 -2.4648,-1.5977 -3.7031,-0.80469 -1.2539,0.79688 -1.6172,2.4453 -0.82422,3.6914 z"
       id="path99" />
    <path
       d="m 223.56,365.96 c 5.5703,0 10.109,-4.5234 10.109,-10.098 0,-5.5547 -4.5352,-10.09 -10.109,-10.09 -5.5703,0 -10.098,4.5352 -10.098,10.09 0,5.5742 4.5234,10.098 10.098,10.098 z m 0,-14.828 c 2.6094,0 4.7383,2.1328 4.7383,4.7305 0,2.6094 -2.1289,4.7305 -4.7383,4.7305 -2.6094,0 -4.7422,-2.1211 -4.7422,-4.7305 0.004,-2.5977 2.1367,-4.7305 4.7422,-4.7305 z"
       id="path101" />
    <path
       d="m 353.18,365.96 c 5.5703,0 10.098,-4.5234 10.098,-10.098 0,-5.5547 -4.5234,-10.09 -10.098,-10.09 -5.5625,0 -10.086,4.5352 -10.086,10.09 0.008,5.5742 4.5273,10.098 10.086,10.098 z m 0,-14.828 c 2.6133,0 4.7383,2.1328 4.7383,4.7305 0,2.6094 -2.1211,4.7305 -4.7383,4.7305 -2.6094,0 -4.7266,-2.1211 -4.7266,-4.7305 0.008,-2.5977 2.125,-4.7305 4.7266,-4.7305 z"
       id="path103" />
    <path
       d="m 289.46,410.95 c -5.5703,0 -10.102,4.5312 -10.102,10.102 0,5.5625 4.5312,10.09 10.102,10.09 5.5625,0 10.086,-4.5312 10.086,-10.09 0,-5.5742 -4.5195,-10.102 -10.086,-10.102 z m 0,14.824 c -2.6094,0 -4.7383,-2.1328 -4.7383,-4.7266 0,-2.6211 2.1211,-4.7422 4.7383,-4.7422 2.6055,0 4.7266,2.1211 4.7266,4.7422 0,2.5938 -2.125,4.7266 -4.7266,4.7266 z"
       id="path105" />
    <path
       d="m 419.08,410.95 c -5.5664,0 -10.09,4.5312 -10.09,10.102 0,5.5625 4.5234,10.09 10.09,10.09 5.5664,0 10.113,-4.5312 10.113,-10.09 0,-5.5742 -4.5469,-10.102 -10.113,-10.102 z m 0,14.824 c -2.6094,0 -4.7266,-2.1328 -4.7266,-4.7266 0,-2.6211 2.1172,-4.7422 4.7266,-4.7422 2.6211,0 4.75,2.1211 4.75,4.7422 0,2.5938 -2.1289,4.7266 -4.75,4.7266 z"
       id="path107" />
    <path
       d="m 481.36,365.96 c 5.5664,0 10.102,-4.5234 10.102,-10.098 0,-5.5547 -4.5352,-10.09 -10.102,-10.09 -5.5668,0 -10.09,4.5352 -10.09,10.09 0,5.5742 4.5234,10.098 10.09,10.098 z m 0,-14.828 c 2.6094,0 4.7422,2.1328 4.7422,4.7305 0,2.6094 -2.1328,4.7305 -4.7422,4.7305 -2.6055,0 -4.7305,-2.1211 -4.7305,-4.7305 0,-2.5977 2.125,-4.7305 4.7305,-4.7305 z"
       id="path109" />
    <path
       d="m 592.55,475.64 c -0.0742,-1.4062 -0.15234,-2.8828 -0.15234,-4.418 0,-11.57 -11.75,-20.977 -26.18,-20.977 h -15.902 l -0.004,-153.17 c 0,-25.316 -20.59,-45.922 -45.91,-45.922 h -3.8242 V 233.43 l 0.0508,-0.0117 c -0.0156,-0.0547 -0.0273,-0.10547 -0.0508,-0.15625 v -19.746 l 0.0508,-0.0117 c -0.0156,-0.0547 -0.0273,-0.10547 -0.0508,-0.15625 v -19.734 l 0.0508,-0.0117 c -0.0156,-0.0625 -0.0273,-0.10156 -0.0508,-0.15625 v -28.656 h -13.254 v -8.1484 c 4.0273,-0.98438 7.7266,-3.707 9.9414,-7.5977 2.9023,-5.1055 2.7891,-10.977 -0.28125,-16.105 -6.4023,-10.711 -8.8438,-18.316 -8.8711,-18.391 l -1.3672,-4.3281 -3.125,3.293 c -0.11719,0.125 -2.9531,3.1133 -5.0234,6.0586 -0.69531,0.84375 -16.934,20.934 -3.9375,33.504 2.1445,2.0703 4.6367,3.3477 7.3008,3.8203 v 7.9023 h -13.254 v 86.367 h -33.773 v -17.73 l 0.0508,-0.004 c -0.0117,-0.0547 -0.0391,-0.10547 -0.0508,-0.16406 v -19.738 l 0.0508,-0.0117 c -0.0117,-0.0625 -0.0391,-0.10547 -0.0508,-0.16406 v -19.734 l 0.0508,-0.0117 c -0.0117,-0.0625 -0.0391,-0.10156 -0.0508,-0.16406 v -28.648 l -13.258,0.004 v -8.1484 c 4.0195,-0.98438 7.7227,-3.707 9.9336,-7.5977 2.8906,-5.1016 2.7891,-10.977 -0.27344,-16.105 -6.4023,-10.711 -8.8477,-18.316 -8.8711,-18.391 l -1.3711,-4.3281 -3.1289,3.293 c -0.125,0.125 -2.9336,3.1133 -5.0195,6.0586 -0.70703,0.84375 -16.945,20.934 -3.9297,33.504 2.1406,2.0703 4.6328,3.3477 7.2969,3.8203 v 7.9023 h -13.242 v 86.367 h -33.797 v -17.723 l 0.0508,-0.0117 c -0.0117,-0.043 -0.0352,-0.0859 -0.0508,-0.12891 v -19.773 l 0.0508,-0.0117 c -0.0117,-0.0508 -0.0352,-0.0859 -0.0508,-0.12891 v -19.762 l 0.0508,-0.0117 c -0.0117,-0.043 -0.0352,-0.0781 -0.0508,-0.12891 v -28.688 h -13.266 v -8.1484 c 4.0195,-0.98047 7.7383,-3.7031 9.9453,-7.5977 2.8945,-5.1055 2.793,-10.977 -0.26953,-16.109 -6.418,-10.707 -8.8477,-18.312 -8.8828,-18.391 l -1.3789,-4.3359 -3.1289,3.2969 c -0.11719,0.125 -2.918,3.1094 -5.0117,6.0547 -0.69922,0.84375 -16.934,20.934 -3.9297,33.504 2.1445,2.0703 4.6367,3.3477 7.293,3.8203 v 7.9023 h -13.242 v 86.367 h -33.797 v -17.723 l 0.0547,-0.0117 c -0.0234,-0.0547 -0.0352,-0.10547 -0.0547,-0.15625 v -19.746 l 0.0547,-0.0117 c -0.0234,-0.0547 -0.0352,-0.10547 -0.0547,-0.15625 v -19.734 l 0.0547,-0.0117 c -0.0234,-0.0625 -0.0352,-0.10156 -0.0547,-0.15625 v -28.656 l -13.25,-0.004 v -8.1484 c 4.0273,-0.98438 7.7266,-3.707 9.9453,-7.5977 2.8828,-5.1055 2.793,-10.977 -0.28125,-16.105 -6.4062,-10.711 -8.8555,-18.316 -8.8828,-18.391 l -1.3711,-4.3281 -3.125,3.2969 c -0.12891,0.125 -2.9414,3.1094 -5.0195,6.0547 -0.69922,0.84375 -16.93,20.934 -3.9375,33.504 2.1445,2.0703 4.6406,3.3477 7.3008,3.8203 v 7.9023 h -13.254 v 86.367 h -33.777 v -17.723 l 0.043,-0.0117 c -0.0117,-0.043 -0.0351,-0.0859 -0.043,-0.125 v -19.777 l 0.043,-0.0117 c -0.0117,-0.0508 -0.0351,-0.0859 -0.043,-0.12891 v -19.762 l 0.043,-0.0117 c -0.0117,-0.043 -0.0351,-0.0859 -0.043,-0.12891 V 164.81 h -13.262 v -8.1484 c 4.0195,-0.98438 7.7266,-3.707 9.9336,-7.5977 2.8945,-5.1016 2.793,-10.977 -0.26953,-16.105 -6.4062,-10.711 -8.8594,-18.316 -8.8828,-18.391 l -1.3789,-4.3281 -3.125,3.2969 c -0.11719,0.125 -2.9297,3.1094 -5.0117,6.0547 -0.69922,0.84375 -16.934,20.934 -3.9375,33.504 2.1445,2.0781 4.6406,3.3477 7.3086,3.8203 v 7.9023 h -13.262 v 86.367 h -3.7188 c -25.316,0 -45.902,20.602 -45.902,45.922 l 0.008,153.13 h -15.824 c -14.438,0 -26.188,9.4062 -26.188,20.977 0,1.5469 -0.0937,3.0391 -0.18359,4.4336 -0.30078,4.6758 -0.60938,9.4883 2.7383,13.082 2.1836,2.3281 5.3203,3.4609 9.5977,3.4609 h 454.5 c 3.6953,0 6.6016,-1.082 8.6172,-3.2266 3.3633,-3.5117 3.0977,-8.4961 2.8438,-13.324 z M 478.4,149.21 c -9.4531,-9.1445 4.2188,-26.078 4.4727,-26.402 0.56641,-0.79688 1.1797,-1.5898 1.7734,-2.3242 1.4375,3.4609 3.9023,8.7812 7.7461,15.203 2.043,3.4258 2.1211,7.332 0.20703,10.707 -3.0391,5.3477 -9.7695,7.0977 -14.199,2.8164 z m -4.3242,20.941 h 21.152 v 15.418 c -3.0078,-2.0547 -6.6914,-3.0586 -9.9609,-3.9102 -6.2148,-1.6133 -10.098,-2.8555 -11.188,-7.4766 z m 0,12.844 c 2.9531,2.0234 6.6016,3.0195 9.8398,3.8594 6.1562,1.5859 10.039,2.8633 11.316,7.3359 v 11.289 c -3.0078,-2.0625 -6.6914,-3.0508 -9.9609,-3.9102 -6.2148,-1.6055 -10.098,-2.8555 -11.188,-7.4766 v -11.098 z m 0,19.91 c 2.957,2.0273 6.6016,3.0117 9.8398,3.8516 6.1562,1.5977 10.039,2.8633 11.316,7.3359 v 11.301 c -3.0078,-2.0547 -6.6875,-3.0508 -9.9609,-3.9102 -6.2148,-1.6133 -10.098,-2.8633 -11.188,-7.4805 v -11.098 z m 0,19.914 c 2.957,2.0273 6.6016,3.0234 9.8398,3.8594 6.1562,1.5977 10.039,2.8633 11.316,7.3359 v 17.141 h -21.152 l 0.004,-28.336 z m -61.332,-73.609 c -9.457,-9.1445 4.207,-26.078 4.4648,-26.402 0.55859,-0.79688 1.1875,-1.5977 1.7812,-2.3242 1.4375,3.457 3.9102,8.7812 7.75,15.191 2.0391,3.4336 2.1211,7.3359 0.20703,10.711 -3.0352,5.3438 -9.7617,7.1133 -14.203,2.8242 z m -4.3203,20.941 h 21.152 v 15.422 c -3.0078,-2.0625 -6.6875,-3.0586 -9.9688,-3.9102 -6.2031,-1.6055 -10.078,-2.8555 -11.184,-7.4609 z m 0,12.852 c 2.9609,2.0234 6.6133,3.0117 9.8438,3.8516 6.1445,1.5898 10.031,2.8633 11.312,7.3477 v 11.285 c -3.0078,-2.0625 -6.6875,-3.0586 -9.9688,-3.9102 -6.2031,-1.6055 -10.078,-2.8555 -11.184,-7.4648 v -11.109 z m 0,19.906 c 2.9609,2.0234 6.6133,3.0117 9.8438,3.8516 6.1445,1.5898 10.031,2.8633 11.312,7.3359 v 11.301 c -3,-2.0625 -6.6875,-3.0586 -9.957,-3.9102 -6.2148,-1.6055 -10.086,-2.8555 -11.195,-7.4688 v -11.109 z m 0,19.914 c 2.9609,2.0234 6.6133,3.0195 9.8438,3.8516 6.1445,1.5898 10.031,2.8672 11.312,7.3359 v 17.137 h -21.152 v -28.324 z m -61.336,-73.613 c -9.4648,-9.1445 4.1992,-26.078 4.457,-26.402 0.56641,-0.78906 1.1914,-1.5898 1.7852,-2.3242 1.4375,3.4609 3.9102,8.7812 7.7461,15.191 2.0547,3.4336 2.1289,7.3359 0.21094,10.711 -3.0234,5.3516 -9.7539,7.1211 -14.199,2.8242 z m -4.3242,20.941 h 21.156 v 15.422 c -3,-2.0625 -6.6875,-3.0625 -9.9688,-3.9141 -6.2109,-1.6055 -10.09,-2.8555 -11.188,-7.4766 z m 0,12.844 c 2.957,2.0234 6.6016,3.0117 9.8438,3.8516 6.1562,1.5977 10.047,2.8711 11.312,7.3711 v 11.262 c -3,-2.0625 -6.6875,-3.0586 -9.9688,-3.9141 -6.2109,-1.6055 -10.09,-2.8555 -11.188,-7.4766 z m 0,19.91 c 2.957,2.0273 6.6016,3.0117 9.8438,3.8516 6.1641,1.5977 10.047,2.8672 11.312,7.3711 v 11.266 c -3,-2.0547 -6.6875,-3.0586 -9.9609,-3.9102 -6.2148,-1.6133 -10.098,-2.8633 -11.195,-7.4805 z m 0,19.914 c 2.957,2.0273 6.6016,3.0234 9.8438,3.8594 6.1641,1.6016 10.047,2.8672 11.312,7.3711 v 17.109 h -21.156 z m -61.344,-73.609 c -9.4453,-9.1445 4.2188,-26.078 4.4727,-26.402 0.55469,-0.79688 1.1758,-1.5898 1.7734,-2.3242 1.4375,3.4609 3.9141,8.7812 7.75,15.199 2.043,3.4258 2.1211,7.332 0.21094,10.707 -3.0352,5.3516 -9.7695,7.1016 -14.207,2.8203 z m -4.3164,20.941 h 21.145 v 15.418 c -2.9961,-2.0547 -6.6758,-3.0586 -9.957,-3.9102 -6.2031,-1.6055 -10.086,-2.8555 -11.188,-7.4766 z m 0,12.844 c 2.957,2.0234 6.5977,3.0195 9.8438,3.8594 6.1445,1.5898 10.035,2.8633 11.301,7.3359 v 11.289 c -2.9961,-2.0625 -6.6758,-3.0508 -9.957,-3.9102 -6.2031,-1.6055 -10.086,-2.8555 -11.188,-7.4766 z m 0,19.91 c 2.957,2.0273 6.6016,3.0195 9.8516,3.8594 6.1484,1.5898 10.031,2.8633 11.297,7.3359 v 11.301 c -2.9961,-2.0547 -6.6758,-3.0508 -9.957,-3.9102 -6.2031,-1.6133 -10.086,-2.8633 -11.188,-7.4805 z m 0,19.914 c 2.9688,2.0273 6.6016,3.0234 9.8516,3.8594 6.1484,1.5977 10.031,2.8672 11.297,7.3359 v 17.141 h -21.145 z m -61.332,-73.609 c -9.457,-9.1445 4.2109,-26.078 4.4688,-26.402 0.55859,-0.79688 1.1797,-1.5898 1.7695,-2.3242 1.4453,3.4609 3.9258,8.7812 7.7617,15.191 2.043,3.4336 2.1211,7.3359 0.20703,10.711 -3.0391,5.3555 -9.7891,7.1055 -14.207,2.8242 z m -4.3242,20.941 h 21.152 v 15.422 c -2.9961,-2.0625 -6.6797,-3.0625 -9.957,-3.9141 -6.2148,-1.6055 -10.098,-2.8555 -11.195,-7.4766 z m 0,12.844 c 2.957,2.0234 6.6016,3.0195 9.8398,3.8594 6.1641,1.5898 10.047,2.8672 11.312,7.3711 v 11.258 c -2.9961,-2.0625 -6.6797,-3.0586 -9.957,-3.9141 -6.2148,-1.6055 -10.098,-2.8555 -11.195,-7.4766 z m 0,19.91 c 2.957,2.0273 6.6016,3.0117 9.8438,3.8516 6.1562,1.5977 10.039,2.8672 11.305,7.3711 v 11.273 c -2.9961,-2.0625 -6.6797,-3.0586 -9.957,-3.9141 -6.2148,-1.6133 -10.086,-2.8555 -11.195,-7.4805 z m 0,19.914 c 2.957,2.0273 6.6016,3.0234 9.8438,3.8594 6.1562,1.6016 10.039,2.8672 11.305,7.3711 v 17.109 h -21.152 z m -44.262,74.254 c 0,-19.41 15.785,-35.195 35.184,-35.195 h 302.04 c 16.992,0 31.191,12.098 34.48,28.125 l 0.0156,9.2578 c 0,6.8984 -5.64059,12.5 -12.582,12.5 -6.9453,0 -12.582,-5.6016 -12.594,-12.309 l 0.0391,-3.9375 c 0,-9.8438 -8.0547,-17.852 -17.941,-17.852 -9.832,0 -17.879,7.9688 -17.941,17.781 l 0.0273,18.328 c 0,6.8828 -5.6406,12.48 -12.57,12.48 -6.9492,0 -12.594,-5.6016 -12.602,-12.309 l 0.0391,-8.7656 c 0,-9.832 -8.0469,-17.848 -17.938,-17.848 h -178.27 c -9.8945,0 -17.953,8.0117 -17.953,17.848 l 0.0391,1.0938 c 0,6.8828 -5.6445,12.48 -12.59,12.48 -6.9455,0 -12.594,-5.5938 -12.609,-12.191 l 0.0547,-11.129 c -0.0547,-9.8008 -8.0977,-17.77 -17.941,-17.77 -9.8945,0 -17.953,8.0117 -17.953,17.852 l 0.0351,3.7461 c 0,6.1758 -4.543,11.285 -10.477,12.293 l -0.004,-14.48 z m 0,19.836 c 8.8867,-1.0547 15.824,-8.5508 15.809,-18.004 v -3.3867 c 0,-6.8867 5.6445,-12.492 12.582,-12.492 6.9102,0 12.551,5.5781 12.59,12.422 l -0.0352,10.832 c 0,9.8438 8.0547,17.848 17.949,17.848 9.8943,0 17.949,-8.0039 17.914,-18.199 v -0.73828 c 0,-6.8867 5.6445,-12.488 12.59,-12.488 h 178.25 c 6.9375,0 12.578,5.6016 12.578,12.488 l -0.0273,8.5977 c 0,9.8438 8.0547,17.852 17.949,17.852 9.8906,0 17.93,-8.0078 17.898,-18.176 l -0.004,-18.008 c 0.0391,-6.8555 5.707,-12.438 12.59,-12.438 6.9453,0 12.594,5.6055 12.594,12.492 l -0.0391,3.7461 c 0,9.8438 8.0547,17.863 17.941,17.863 5.2734,0 10,-2.3281 13.281,-6.0156 v 34.77 c -23.492,2.457 -36.023,18.473 -44.52,29.43 -8.0625,10.367 -9.7031,11.418 -13.266,11.418 -3.5742,0 -5.2266,-1.0547 -13.293,-11.457 -9.2188,-11.84 -23.16,-29.746 -50.754,-29.746 -27.59,0 -41.523,17.91 -50.758,29.793 -8.0547,10.355 -9.7109,11.406 -13.25,11.406 -3.5508,0 -5.1953,-1.0547 -13.281,-11.457 -9.2109,-11.84 -23.141,-29.746 -50.719,-29.746 -27.598,0 -41.523,17.891 -50.758,29.781 -8.0586,10.367 -9.7109,11.418 -13.277,11.418 -3.5508,0 -5.207,-1.0547 -13.266,-11.418 -8.5781,-11.047 -21.258,-27.332 -45.266,-29.52 v -28.867 z m 0,34.289 c 21.43,2.2305 33.113,17.203 41.035,27.391 8.3711,10.793 11.305,13.508 17.496,13.508 6.1953,0 9.1328,-2.7148 17.535,-13.531 8.5664,-11.027 21.539,-27.664 46.504,-27.664 24.961,0 37.91,16.645 46.52,27.699 8.3711,10.781 11.305,13.496 17.484,13.496 6.1719,0 9.1055,-2.7148 17.496,-13.512 8.5742,-11.027 21.543,-27.68 46.52,-27.68 24.977,0 37.941,16.645 46.543,27.688 8.3711,10.793 11.301,13.508 17.512,13.508 6.1836,0 9.1172,-2.7148 17.512,-13.523 7.8281,-10.062 19.332,-24.773 40.273,-27.273 v 38.199 c -3.0586,1.7812 -6.1367,5.3242 -11.258,11.934 -8.5781,11.047 -21.543,27.715 -46.535,27.715 -25,0 -37.961,-16.672 -46.543,-27.715 -8.3594,-10.773 -11.297,-13.473 -17.512,-13.473 -6.1953,0 -9.1211,2.6992 -17.488,13.473 -8.5625,11.047 -21.531,27.715 -46.523,27.715 -25.004,0 -37.957,-16.672 -46.512,-27.715 -8.3672,-10.773 -11.289,-13.473 -17.496,-13.473 -6.2109,0 -9.1445,2.7109 -17.5,13.473 -8.5859,11.047 -21.543,27.715 -46.535,27.715 -24.977,0 -37.941,-16.672 -46.512,-27.715 -5.5508,-7.1406 -8.707,-10.703 -12.02,-12.324 l -0.008,-37.914 z m 0,44.445 c 1.7656,1.5977 4.0938,4.3164 7.7852,9.0664 9.2188,11.871 23.141,29.785 50.746,29.785 27.613,0 41.547,-17.914 50.773,-29.785 7.9727,-10.281 9.7383,-11.402 13.262,-11.402 3.3359,0 4.8047,0.51953 13.254,11.402 9.2109,11.871 23.121,29.785 50.746,29.785 27.609,0 41.535,-17.914 50.754,-29.785 8.4688,-10.879 9.9219,-11.402 13.254,-11.402 3.3594,0 4.8203,0.51953 13.281,11.402 9.2109,11.871 23.145,29.785 50.766,29.785 27.613,0 41.539,-17.914 50.758,-29.785 3.1641,-4.082 5.3555,-6.6992 7.0273,-8.3828 l 0.004,53.91 h -372.41 z m -40.57,85.82 c -0.87891,0 -1.4102,-0.0859 -1.6953,-0.15625 -0.20312,-1.0117 -0.043,-3.3477 0.0625,-4.9492 0.10156,-1.6289 0.20703,-3.3555 0.20703,-5.1367 0,-5.5547 7.0742,-10.258 15.461,-10.258 h 43.59 l -17.812,19.449 1.1602,1.0547 z m 46.094,0 18.793,-20.5 h 28.547 l -18.801,20.5 z m 409.16,-0.0391 c -0.19141,0.0234 -0.4375,0.0391 -0.76562,0.0391 h -372.58 l 18.789,-20.5 h 338.91 c 8.3789,0 15.457,4.7031 15.457,10.258 0,1.7422 0.0859,3.4102 0.16406,4.9844 0.0977,1.7734 0.21484,4.0977 0.0312,5.2188 z"
       id="path111" />
  </g>
</svg>
