<svg width="26" height="30" viewBox="0 0 26 30" fill="none" xmlns="http://www.w3.org/2000/svg">
<path d="M18.2576 20.5495C18.4663 20.5495 18.6631 20.4881 18.8481 20.3652C19.0331 20.2422 19.1968 20.0774 19.3391 19.8707C19.4814 19.664 19.5929 19.4209 19.6735 19.1416C19.7541 18.8622 19.7945 18.5605 19.7945 18.2365C19.7945 17.9124 19.7541 17.6079 19.6735 17.323C19.5929 17.038 19.4838 16.7922 19.3462 16.5855C19.2086 16.3788 19.045 16.2139 18.8553 16.091C18.6655 15.9681 18.4663 15.9066 18.2576 15.9066C18.0394 15.9066 17.8378 15.9681 17.6528 16.091C17.4678 16.2139 17.3041 16.3788 17.1618 16.5855C17.0195 16.7922 16.9081 17.038 16.8274 17.323C16.7468 17.6079 16.7065 17.9124 16.7065 18.2365C16.7065 18.5382 16.7444 18.8259 16.8203 19.0997C16.8962 19.3734 17.0029 19.6193 17.1405 19.8372C17.2781 20.0551 17.4417 20.2283 17.6314 20.3568C17.8212 20.4853 18.0299 20.5495 18.2576 20.5495ZM6.63136 20.5495C6.84956 20.5495 7.05353 20.4853 7.24326 20.3568C7.433 20.2283 7.59902 20.0579 7.74133 19.8456C7.88363 19.6332 7.9951 19.3874 8.07574 19.1081C8.15638 18.8287 8.1967 18.5382 8.1967 18.2365C8.1967 17.9124 8.15638 17.6079 8.07574 17.323C7.9951 17.038 7.88363 16.7922 7.74133 16.5855C7.59902 16.3788 7.433 16.2139 7.24326 16.091C7.05353 15.9681 6.84956 15.9066 6.63136 15.9066C6.41316 15.9066 6.21156 15.9681 6.02657 16.091C5.84157 16.2139 5.68029 16.3788 5.54273 16.5855C5.40517 16.7922 5.29607 17.038 5.21543 17.323C5.1348 17.6079 5.09448 17.9124 5.09448 18.2365C5.09448 18.5605 5.1348 18.8622 5.21543 19.1416C5.29607 19.4209 5.40754 19.664 5.54985 19.8707C5.69215 20.0774 5.8558 20.2422 6.0408 20.3652C6.22579 20.4881 6.42265 20.5495 6.63136 20.5495ZM15.9665 23.4325C15.9665 23.2313 15.8953 23.1308 15.753 23.1308L15.5396 23.2481C15.0368 23.6057 14.5861 23.7845 14.1877 23.7845C13.8651 23.7845 13.5782 23.6895 13.3268 23.4995C13.0753 23.3096 12.9496 23.0134 12.9496 22.6112V22.41C13.1678 22.3206 13.3671 22.1754 13.5473 21.9742C13.7276 21.7731 13.8177 21.5385 13.8177 21.2703C13.8177 20.9127 13.7228 20.6529 13.5331 20.4909C13.3434 20.3288 13.0113 20.2478 12.537 20.2478C12.0626 20.2478 11.7329 20.3288 11.548 20.4909C11.363 20.6529 11.2705 20.9127 11.2705 21.2703C11.2705 21.6725 11.5219 22.0357 12.0247 22.3598V22.6112C12.0247 23.0134 11.8966 23.3096 11.6405 23.4995C11.3843 23.6895 11.0997 23.7845 10.7866 23.7845C10.3882 23.7845 9.93755 23.6057 9.43474 23.2481L9.20706 23.1308C9.07424 23.1308 9.00783 23.2313 9.00783 23.4325C9.00783 23.723 9.19757 23.9912 9.57705 24.237C9.95652 24.4717 10.2933 24.6002 10.5874 24.6225L10.7439 24.9913C10.9621 25.874 11.1424 26.4551 11.2847 26.7345C11.5788 27.3155 11.9962 27.6061 12.537 27.6061C12.7362 27.6061 12.9188 27.5641 13.0848 27.4803C13.2509 27.3965 13.405 27.2541 13.5473 27.0529C13.6896 26.8518 13.8201 26.5864 13.9387 26.2568C14.0572 25.9271 14.1687 25.5109 14.2731 25.008L14.3442 24.6561C14.6004 24.6114 14.8304 24.5387 15.0344 24.4382C15.2384 24.3376 15.4091 24.2231 15.5467 24.0946C15.6843 23.9661 15.7886 23.8431 15.8598 23.7258C15.9309 23.6085 15.9665 23.5107 15.9665 23.4325ZM23.3805 12.1018C24.5095 14.2026 25.0739 16.4821 25.0739 18.9404C25.0739 20.8401 24.7656 22.4687 24.149 23.8264C23.5323 25.184 22.5836 26.3322 21.3029 27.2708C20.0127 28.1983 18.5849 28.8464 17.0195 29.2151C16.2226 29.4051 15.4447 29.5448 14.6858 29.6342C13.9268 29.7236 13.1773 29.7739 12.4374 29.785C11.6689 29.7962 10.8981 29.7487 10.1249 29.6426C9.35173 29.5364 8.5572 29.3716 7.74133 29.1481C6.1665 28.7123 4.76718 28.0307 3.54336 27.1032C2.32904 26.1646 1.4349 25.0192 0.860938 23.6671C0.286979 22.3151 0 20.7395 0 18.9404C0 16.4821 0.569215 14.2026 1.70765 12.1018C1.62226 11.152 1.5606 10.2553 1.52265 9.41163C1.4847 8.56798 1.46573 7.77181 1.46573 7.02314C1.46573 4.72125 1.64124 2.97528 1.99225 1.78522C2.34327 0.595171 2.84608 0.000143051 3.50067 0.000143051C3.80426 0.000143051 4.16239 0.114679 4.57507 0.34375C4.98775 0.572823 5.44075 0.908049 5.93407 1.34943C6.42739 1.79081 6.95628 2.32997 7.52076 2.9669C8.08523 3.60383 8.67579 4.32457 9.29244 5.12911L10.0466 6.15155C10.4736 6.06216 10.8886 6.0007 11.2918 5.96718C11.695 5.93365 12.1101 5.91689 12.537 5.91689C12.9639 5.91689 13.3789 5.93365 13.7821 5.96718C14.1853 6.0007 14.6004 6.06216 15.0273 6.15155C16.4219 4.28546 17.437 3.02836 18.0726 2.38025C18.3951 2.04502 18.7177 1.73215 19.0402 1.44162C19.3628 1.15109 19.6735 0.899668 19.9723 0.687359C20.2712 0.475048 20.5534 0.307434 20.819 0.184519C21.0847 0.0616016 21.3266 0.000143051 21.5448 0.000143051C22.2089 0.000143051 22.7188 0.595171 23.0746 1.78522C23.4303 2.97528 23.6082 4.73243 23.6082 7.05666C23.6082 7.89473 23.5892 8.7328 23.5513 9.57086C23.5133 10.4089 23.4564 11.2526 23.3805 12.1018Z" fill="#C58106"/>
</svg>
