<svg width="26" height="30" viewBox="0 0 26 30" fill="none" xmlns="http://www.w3.org/2000/svg">
<g clip-path="url(#clip0_17_222)">
<path d="M23.6252 9.69723C22.9566 8.93602 22.0929 6.25524 22.0929 6.25524L19.3069 4.83211H17.9696C16.9388 4.23638 14.4593 2.87944 13.4285 2.64777C13.2613 2.61467 12.7598 2.64777 12.7598 2.64777C12.7598 2.64777 12.2584 2.61467 12.0912 2.64777C11.0604 2.87944 8.58085 4.23638 7.55003 4.83211L5.15408 5.42784L1.69945 8.17481C1.69945 8.17481 0.835792 10.9549 0.390033 11.2527C-0.0557254 11.5506 0.0557144 13.2054 -0.0278654 13.3709C-0.111445 13.5695 0.390033 17.3424 0.390033 17.3424C0.390033 17.3424 5.3491 20.5858 5.54412 21.9428C5.54412 21.9428 5.18194 13.2385 5.54412 12.4442C5.65556 16.6143 7.0207 20.0894 7.04855 21.2809C7.07642 22.4723 7.35501 26.2453 8.13509 26.8079C8.91517 27.3705 11.924 27.3374 12.7598 26.3446C13.5956 27.3374 16.6324 27.3705 17.3846 26.8079C18.1368 26.2453 18.4154 22.4723 18.4711 21.2809C18.499 20.2218 19.5855 17.3424 19.892 13.7681C19.697 19.1958 19.4741 18.0043 19.9756 20.1225C20.6163 22.704 21.0342 22.3399 21.0342 22.3399C21.0342 22.3399 20.8949 20.3211 22.2044 19.1958C23.068 18.4677 23.8759 17.8058 23.8759 17.8058L25.1018 13.6688C25.1018 13.6357 24.2938 10.4584 23.6252 9.69723ZM8.19081 14.8933C7.43859 14.8933 6.6028 13.735 6.6028 13.735C6.6028 13.735 7.52217 12.5766 8.19081 12.5766C8.72015 12.5766 9.61167 13.9666 9.61167 13.9666C9.61167 13.9666 8.94303 14.8933 8.19081 14.8933ZM13.2056 24.9876H12.3141C11.8683 24.9876 11.0882 22.7702 11.1997 22.1745C11.3111 21.6118 12.1748 21.3471 12.5927 21.3471H12.927C13.3449 21.3471 14.2086 21.6118 14.32 22.1745C14.4036 22.7702 13.6235 24.9876 13.2056 24.9876ZM17.3289 14.8933C16.5766 14.8933 15.908 13.9666 15.908 13.9666C15.908 13.9666 16.8274 12.5766 17.3289 12.5766C17.9975 12.5766 18.9169 13.735 18.9169 13.735C18.9169 13.735 18.0811 14.8933 17.3289 14.8933Z" fill="#C58106"/>
<path d="M12.6763 13.8672C12.0633 14.5953 10.1967 14.827 8.97089 14.6284H9.02661C9.02661 14.6284 10.7539 15.886 12.4812 15.886C14.3757 15.886 16.103 14.6615 16.103 14.6615C14.905 14.7939 13.2613 14.5622 12.6763 13.8672Z" fill="#C58106"/>
</g>
<defs>
<clipPath id="clip0_17_222">
<rect width="25.0739" height="29.7865" fill="white"/>
</clipPath>
</defs>
</svg>
