<svg xmlns="http://www.w3.org/2000/svg" width="24" height="16" viewBox="0 0 18 12"><path style="fill:none;stroke:#050000;stroke-width:.99975002;stroke-linecap:butt;stroke-linejoin:miter;stroke-miterlimit:10;stroke-dasharray:none;stroke-opacity:1" d="M6.249875 3.5c0-1.3789062-1.1210938-2.5-2.5-2.5s-2.5 1.1210938-2.5 2.5 1.1210938 2.5 2.5 2.5 2.5-1.1210938 2.5-2.5zM3.749875 11V6M1.249875 8.5h5"/><path style="fill:none;stroke:#050000;stroke-width:.99975002;stroke-linecap:butt;stroke-linejoin:miter;stroke-miterlimit:4;stroke-dasharray:none;stroke-opacity:1" d="m13.578714 5.4523925 3.171875-3.171875M14.68125 2.2805175h2.069339v2.0695312M14.311625 7.2194829c0-.6894535-.280274-1.3144536-.732911-1.7670904-.452636-.4526367-1.077636-.7329101-1.767089-.7329101-1.378907 0-2.4999999 1.1210935-2.4999999 2.5000005 0 1.378906 1.1210929 2.4999995 2.4999999 2.4999995 1.378906 0 2.5-1.1210935 2.5-2.4999995z"/></svg>