<?xml version="1.0" encoding="utf-8"?>
<svg xmlns="http://www.w3.org/2000/svg" xml:space="preserve" viewBox="0 0 283.5 283.5">
  <style>
    .st3{fill:none;stroke:#000;stroke-width:3;stroke-linecap:round;stroke-linejoin:round;stroke-miterlimit:10}.st7,.st8{fill:#fff}.st8{stroke:#000;stroke-width:3;stroke-miterlimit:10}
  </style>
  <g id="מאזניים">
    <g id="קו_מתאר">
      <path d="M141.4 256.1c-2.2 0-4-1.8-4-4V38.2c0-2.2 1.8-4 4-4h.7c2.2 0 4 1.8 4 4v213.9c0 2.2-1.8 4-4 4h-.7z" class="st7"/>
      <path d="M142.1 35.7c1.4 0 2.5 1.1 2.5 2.5v213.9c0 1.4-1.1 2.5-2.5 2.5h-.7c-1.4 0-2.5-1.1-2.5-2.5V38.2c0-1.4 1.1-2.5 2.5-2.5h.7m0-3h-.7c-3 0-5.5 2.5-5.5 5.5v213.9c0 3 2.5 5.5 5.5 5.5h.7c3 0 5.5-2.5 5.5-5.5V38.2c0-3-2.5-5.5-5.5-5.5z"/>
      <path d="M43.6 95.8c-1.6 0-3.1-1-3.7-2.6l-.3-.8c-.4-1-.3-2 .1-3s1.2-1.7 2.2-2l196.5-71.5c.4-.2.9-.2 1.3-.2 1.7 0 3.1 1 3.7 2.6l.3.8c.7 2-.3 4.3-2.3 5L44.9 95.6c-.4.2-.8.2-1.3.2z" class="st7"/>
      <path d="M239.8 17.2c1 0 1.9.6 2.3 1.6l.3.8c.2.6.2 1.3-.1 1.8-.3.6-.8 1-1.4 1.3L44.4 94.2c-.3.1-.5.1-.8.1-1 0-1.9-.6-2.3-1.6L41 92c-.2-.6-.2-1.3.1-1.8.3-.6.8-1 1.4-1.3L239 17.3c.3-.1.6-.1.8-.1m0-3c-.6 0-1.2.1-1.8.3L41.5 86c-2.8 1-4.3 4.1-3.2 6.9l.3.8c.8 2.2 2.9 3.6 5.1 3.6.6 0 1.2-.1 1.8-.3L242 25.5c2.8-1 4.3-4.1 3.2-6.9l-.3-.8c-.7-2.3-2.8-3.6-5.1-3.6z"/>
      <path d="M52.9 263.4c-2.3 0-4.1-1.8-4.1-4.1v-3.4c0-2.3 1.8-4.1 4.1-4.1h5c.7 0 1.3-.5 1.5-1.2.3-1.8 1.9-3.1 3.7-3.1h156.7c1.8 0 3.4 1.3 3.7 3.1.1.7.8 1.2 1.5 1.2h5c2.3 0 4.1 1.8 4.1 4.1v3.4c0 2.3-1.8 4.1-4.1 4.1H52.9z" class="st7"/>
      <path d="M219.8 248.9c1.1 0 2.1.8 2.3 1.9.3 1.4 1.5 2.5 3 2.5h5c1.4 0 2.6 1.2 2.6 2.6v3.4c0 1.4-1.2 2.6-2.6 2.6H52.9c-1.4 0-2.6-1.2-2.6-2.6v-3.4c0-1.4 1.2-2.6 2.6-2.6h5c1.4 0 2.7-1 3-2.5.2-1.1 1.2-1.9 2.3-1.9h156.6m0-3H63.1c-2.6 0-4.7 1.9-5.2 4.3h-5c-3.1 0-5.6 2.5-5.6 5.6v3.4c0 3.1 2.5 5.6 5.6 5.6H230c3.1 0 5.6-2.5 5.6-5.6v-3.4c0-3.1-2.5-5.6-5.6-5.6h-5c-.5-2.4-2.6-4.3-5.2-4.3z"/>
      <path d="m58 170.6 14-44.2 13.9-44.1 14 44.1 13.9 44.2" class="st3"/>
      <path d="M115.1 170.6c1.6 0 2.9 1.5 2.7 3.1-2 11.9-15.5 21.1-31.8 21.1s-29.8-9.2-31.8-21.1c-.3-1.6 1-3.1 2.7-3.1h58.2z" class="st8"/>
      <path d="m171.7 128.9 14-44.1 13.9-44.2 14 44.2 13.9 44.1" class="st3"/>
      <path d="M228.7 128.9c1.6 0 2.9 1.5 2.7 3.1-2 11.9-15.5 21.1-31.8 21.1s-29.8-9.2-31.8-21.1c-.3-1.6 1-3.1 2.7-3.1h58.2z" class="st8"/>
      <path d="M56 177.4h59.9m53.7-41.8h60" class="st3"/>
    </g>
  </g>
</svg>